<mxfile host="app.diagrams.net" modified="2023-09-07T10:53:42.022Z" agent="Mozilla/5.0 (Windows NT 10.0; Win64; x64) AppleWebKit/537.36 (KHTML, like Gecko) Chrome/115.0.0.0 Safari/537.36 Edg/115.0.1901.200" etag="8UTL9_ITts4tNj8E0gQU" version="21.7.2" type="device">
  <diagram name="PÃ¡gina-1" id="3vafuTlPAw6DXh7o1Bnj">
    <mxGraphModel dx="1200" dy="756" grid="1" gridSize="10" guides="1" tooltips="1" connect="1" arrows="1" fold="1" page="1" pageScale="1" pageWidth="827" pageHeight="1169" math="0" shadow="0">
      <root>
        <mxCell id="0" />
        <mxCell id="1" parent="0" />
        <mxCell id="ABTRls8zy6E2h-zhRWsx-6" style="edgeStyle=orthogonalEdgeStyle;rounded=0;orthogonalLoop=1;jettySize=auto;html=1;entryX=0;entryY=0.5;entryDx=0;entryDy=0;shape=link;" parent="1" source="ABTRls8zy6E2h-zhRWsx-2" target="ABTRls8zy6E2h-zhRWsx-3" edge="1">
          <mxGeometry relative="1" as="geometry" />
        </mxCell>
        <mxCell id="ABTRls8zy6E2h-zhRWsx-2" value="Time:&lt;br&gt;00:00" style="ellipse;whiteSpace=wrap;html=1;aspect=fixed;" parent="1" vertex="1">
          <mxGeometry x="40" y="480" width="80" height="80" as="geometry" />
        </mxCell>
        <mxCell id="ABTRls8zy6E2h-zhRWsx-3" value="Time:&lt;br&gt;01:44" style="ellipse;whiteSpace=wrap;html=1;aspect=fixed;" parent="1" vertex="1">
          <mxGeometry x="520" y="480" width="80" height="80" as="geometry" />
        </mxCell>
        <mxCell id="ABTRls8zy6E2h-zhRWsx-4" value="Start of fight" style="text;html=1;strokeColor=none;fillColor=none;align=center;verticalAlign=middle;whiteSpace=wrap;rounded=0;" parent="1" vertex="1">
          <mxGeometry x="45" y="570" width="70" height="30" as="geometry" />
        </mxCell>
        <mxCell id="ABTRls8zy6E2h-zhRWsx-5" value="1st Mark cast" style="text;html=1;strokeColor=none;fillColor=none;align=center;verticalAlign=middle;whiteSpace=wrap;rounded=0;" parent="1" vertex="1">
          <mxGeometry x="522.5" y="570" width="75" height="30" as="geometry" />
        </mxCell>
        <mxCell id="ABTRls8zy6E2h-zhRWsx-8" style="edgeStyle=orthogonalEdgeStyle;rounded=0;orthogonalLoop=1;jettySize=auto;html=1;endArrow=none;endFill=0;" parent="1" source="ABTRls8zy6E2h-zhRWsx-7" edge="1">
          <mxGeometry relative="1" as="geometry">
            <mxPoint x="320" y="520" as="targetPoint" />
          </mxGeometry>
        </mxCell>
        <mxCell id="ABTRls8zy6E2h-zhRWsx-7" value="x27 Boiling Blood ticks&lt;br&gt;x6 Blood Nova hits&lt;br&gt;x5 Rune of Blood hits" style="rounded=0;whiteSpace=wrap;html=1;" parent="1" vertex="1">
          <mxGeometry x="160" y="420" width="320" height="60" as="geometry" />
        </mxCell>
        <mxCell id="ukFftLrMRE7Wmc-4e1Tx-3" value="&lt;b&gt;Example log&lt;/b&gt;&lt;br&gt;https://classic.warcraftlogs.com/reports/a:4VrdMJn8ypFjC2zv#fight=3&amp;amp;type=damage-taken&amp;amp;options=0&amp;amp;by=ability" style="text;whiteSpace=wrap;html=1;align=center;" vertex="1" parent="1">
          <mxGeometry x="15" y="370" width="610" height="30" as="geometry" />
        </mxCell>
      </root>
    </mxGraphModel>
  </diagram>
</mxfile>
